<svg id="Layer_1" data-name="Layer 1" xmlns="http://www.w3.org/2000/svg" viewBox="0 0 2000 2000"><defs><style>.cls-1{fill:#5f84c3;}.cls-2{fill:#fff;}</style></defs><title>blue diamond</title><path class="cls-1" d="M707.65,522.39l742.75,3.2a22,22,0,0,1,17.78,9.13l233.45,322.52a22.09,22.09,0,0,1-1.69,27.94L1104.7,1527.65a22.07,22.07,0,0,1-31.94.45L446,888.71a22.06,22.06,0,0,1-1.92-28.66L689.89,531.24A22.07,22.07,0,0,1,707.65,522.39Z"/><polygon class="cls-2" points="755.9 591.6 561.34 842.22 788.88 842.22 930.68 594.89 755.9 591.6"/><polygon class="cls-2" points="999.93 594.89 851.53 835.63 1296.72 838.92 1174.71 594.89 999.93 594.89"/><polygon class="cls-2" points="1247.26 594.89 1405.55 591.6 1600.11 835.63 1375.87 835.63 1247.26 594.89"/><polygon class="cls-2" points="1372.57 899.93 1586.92 901.58 1189.55 1331.93 1372.57 899.93"/><polygon class="cls-2" points="785.89 899.93 571.54 901.58 968.92 1331.93 785.89 899.93"/><polygon class="cls-2" points="871.32 899.93 1298.37 899.93 1084.02 1391.29 871.32 899.93"/></svg>