<svg id="Layer_1" data-name="Layer 1" xmlns="http://www.w3.org/2000/svg" viewBox="0 0 2000 2000"><defs><style>.cls-1{fill:#ea9e3d;stroke:#231f20;stroke-miterlimit:10;}.cls-2{fill:#fff;}</style></defs><title>brown diamond</title><path class="cls-1" d="M706.8,499.3l695.38,3a20.1,20.1,0,0,1,16.19,8.32l218.81,302.29a20.11,20.11,0,0,1-1.54,25.45l-557.52,601.76a20.09,20.09,0,0,1-29.1.41L461.94,841.66a20.1,20.1,0,0,1-1.74-26.11L690.62,507.37A20.11,20.11,0,0,1,706.8,499.3Z"/><polygon class="cls-2" points="752.21 564.04 570.19 798.5 783.06 798.5 915.71 567.13 752.21 564.04"/><polygon class="cls-2" points="980.49 567.13 841.67 792.33 1258.14 795.41 1144 567.13 980.49 567.13"/><polygon class="cls-2" points="1211.87 567.13 1359.94 564.04 1541.95 792.33 1332.18 792.33 1211.87 567.13"/><polygon class="cls-2" points="1329.09 852.49 1529.62 854.03 1157.88 1256.62 1329.09 852.49"/><polygon class="cls-2" points="780.27 852.49 579.75 854.03 951.48 1256.62 780.27 852.49"/><polygon class="cls-2" points="860.18 852.49 1259.68 852.49 1059.16 1312.14 860.18 852.49"/></svg>